<svg xmlns="http://www.w3.org/2000/svg" viewBox="0 0 200 200" fill="none">
  <!-- Opra Icon — Classic Phantom Mask (Dark Background) -->

  <!-- Mask outline (white) -->
  <path d="
    M 20,30
    C 20,10  36,2    52,6
    C 66,10  76,10   86,6
    C 102,2  118,10  132,30
    C 140,44 134,60 120,70
    C 106,80  90,80   80,74
    C 70,80   54,80   40,70
    C 26,60   20,44   20,30
    Z
  " fill="#FFFFFF"/>

  <!-- Mask body -->
  <path d="
    M 26,32
    C 26,14  38,7    52,10
    C 66,14  76,14   86,10
    C 100,7  112,14  124,32
    C 130,42 126,56 116,64
    C 104,72  90,72   80,68
    C 70,72   56,72   44,64
    C 34,56   30,42   26,32
    Z
  " fill="#FFFFFF" opacity="0.85"/>

  <!-- Right eyehole -->
  <path d="
    M 90,24
    C 96,14  112,18  120,28
    C 124,34 120,44 110,48
    C 100,52  88,44   86,34
    C 84,28   86,24   90,24
    Z
  " fill="#000000"/>

  <!-- Left eyehole -->
  <path d="
    M 34,28
    C 38,18   48,18   54,24
    C 56,30   52,40   44,42
    C 36,44   32,38   34,28
    Z
  " fill="#000000" opacity="0.2"/>

  <!-- Red teardrop -->
  <path d="
    M 116,54
    C 116,60  118,68  118,74
    C 118,84  110,90  100,90
    C  90,90   82,84   82,74
    C  82,68   90,66  100,66
    C 104,66  106,68 108,70
    C 108,64  108,58 108,54
    Z
  " fill="#CC0000"/>

  <!-- Mask ribbons -->
  <path d="M 20,36 C 8,30  -2,36  -12,46" fill="none" stroke="#FFFFFF" stroke-width="2" opacity="0.25"/>
  <path d="M 132,36 C 144,30 154,36  164,46" fill="none" stroke="#FFFFFF" stroke-width="2" opacity="0.25"/>
</svg>